<?xml version="1.0" encoding="UTF-8" standalone="no"?>
<!DOCTYPE svg PUBLIC "-//W3C//DTD SVG 1.1//EN" "http://www.w3.org/Graphics/SVG/1.1/DTD/svg11.dtd">
<svg width="100%" height="100%" viewBox="0 0 5906 5906" version="1.1" xmlns="http://www.w3.org/2000/svg" xmlns:xlink="http://www.w3.org/1999/xlink" xml:space="preserve" xmlns:serif="http://www.serif.com/" style="fill-rule:evenodd;clip-rule:evenodd;stroke-linejoin:round;stroke-miterlimit:2;">
    <g transform="matrix(3.97289,0,0,2.63491,-386.97,-474.458)">
        <path d="M1532.56,319.553C1532.56,264.13 1502.72,219.134 1465.96,219.134L205.304,219.134C168.547,219.134 138.704,264.13 138.704,319.553L138.704,2127.1C138.704,2182.52 168.547,2227.52 205.304,2227.52L1465.96,2227.52C1502.72,2227.52 1532.56,2182.52 1532.56,2127.1L1532.56,319.553Z" style="fill:rgb(205,3,101);"/>
    </g>
    <g transform="matrix(1.00637,0,0,1.58453,-51.836,-1081.89)">
        <path d="M5499.58,2348.05C5499.58,2304.15 5443.46,2268.5 5374.33,2268.5L551.055,2268.5C481.927,2268.5 425.803,2304.15 425.803,2348.05L425.803,3779.95C425.803,3823.86 481.927,3859.5 551.055,3859.5L5374.33,3859.5C5443.46,3859.5 5499.58,3823.86 5499.58,3779.95L5499.58,2348.05Z" style="fill:rgb(108,75,193);"/>
    </g>
    <g transform="matrix(1.59042,0,0,1.59124,-1440.88,-3181.43)">
        <path d="M3938.4,3630.4C3938.4,3601.69 3915.08,3578.38 3886.35,3578.38L1194.87,3578.38C1166.14,3578.38 1142.82,3601.69 1142.82,3630.4L1142.82,4566.84C1142.82,4595.56 1166.14,4618.87 1194.87,4618.87L3886.35,4618.87C3915.08,4618.87 3938.4,4595.56 3938.4,4566.84L3938.4,3630.4Z" style="fill:rgb(123,205,194);"/>
    </g>
    <g transform="matrix(1.09533,0,0,0.695327,33.7129,1173.71)">
        <path d="M3762.47,1985.2C3762.47,1950.4 3744.53,1922.15 3722.44,1922.15L352.51,1922.15C330.419,1922.15 312.484,1950.4 312.484,1985.2L312.484,3120.13C312.484,3154.93 330.419,3183.18 352.51,3183.18L3722.44,3183.18C3744.53,3183.18 3762.47,3154.93 3762.47,3120.13L3762.47,1985.2Z" style="fill:rgb(231,100,92);"/>
    </g>
    <g transform="matrix(1,0,0,1,-419.668,222.246)">
        <text x="1032.5px" y="2603.5px" style="font-family:'GTWalsheim-Bold', 'GT Walsheim';font-weight:600;font-size:250px;fill:white;">COD<tspan x="1604.5px " y="2603.5px ">A</tspan>L</text>
        <text x="1032.5px" y="2803.5px" style="font-family:'GTWalsheim-Bold', 'GT Walsheim';font-weight:600;font-size:200px;fill:white;">L<tspan x="1119.1px " y="2803.5px ">a</tspan>ncas<tspan x="1708.5px 1783.1px " y="2803.5px 2803.5px ">te</tspan>r Univ<tspan x="2452.3px 2567.7px 2649.1px " y="2803.5px 2803.5px 2803.5px ">ers</tspan>ity</text>
    </g>
    <g transform="matrix(1,0,0,1,-425.068,1998.48)">
        <text x="1032.5px" y="2603.5px" style="font-family:'GTWalsheim-Bold', 'GT Walsheim';font-weight:600;font-size:250px;fill:white;">NRF5 SDK</text>
        <text x="1032.5px" y="2803.5px" style="font-family:'GTWalsheim-Bold', 'GT Walsheim';font-weight:600;font-size:200px;fill:white;">Nor<tspan x="1377.1px " y="2803.5px ">d</tspan>ic Semic<tspan x="2321.5px " y="2803.5px ">o</tspan>nductor</text>
    </g>
    <g transform="matrix(1,0,0,1,-425.068,1157.57)">
        <text x="1032.5px" y="2603.5px" style="font-family:'GTWalsheim-Bold', 'GT Walsheim';font-weight:600;font-size:250px;fill:white;">mbed</text>
        <text x="1032.5px" y="2803.5px" style="font-family:'GTWalsheim-Bold', 'GT Walsheim';font-weight:600;font-size:200px;fill:white;">arm</text>
    </g>
    <g transform="matrix(1,0,0,1.3759,-521.489,-1271.44)">
        <path d="M2269.19,1209.12C2269.19,1181.62 2238.47,1159.29 2200.64,1159.29L966.718,1159.29C928.884,1159.29 898.167,1181.62 898.167,1209.12L898.167,2547.51C898.167,2575.01 928.884,2597.33 966.718,2597.33L2200.64,2597.33C2238.47,2597.33 2269.19,2575.01 2269.19,2547.51L2269.19,1209.12Z" style="fill:rgb(231,100,92);"/>
    </g>
    <g transform="matrix(1,0,0,1.37626,1383.99,-1272.36)">
        <path d="M2269.19,1209.1C2269.19,1181.61 2238.47,1159.29 2200.64,1159.29L966.718,1159.29C928.884,1159.29 898.167,1181.61 898.167,1209.1L898.167,2547.52C898.167,2575.01 928.884,2597.33 966.718,2597.33L2200.64,2597.33C2238.47,2597.33 2269.19,2575.01 2269.19,2547.52L2269.19,1209.1Z" style="fill:rgb(231,100,92);"/>
    </g>
    <g transform="matrix(1,0,0,1.3759,3213.58,-1271.44)">
        <path d="M2269.19,1209.12C2269.19,1181.62 2238.47,1159.29 2200.64,1159.29L966.718,1159.29C928.884,1159.29 898.167,1181.62 898.167,1209.12L898.167,2547.51C898.167,2575.01 928.884,2597.33 966.718,2597.33L2200.64,2597.33C2238.47,2597.33 2269.19,2575.01 2269.19,2547.51L2269.19,1209.12Z" style="fill:rgb(231,100,92);"/>
    </g>
    <g transform="matrix(1,0,0,1,1516.26,-1843.63)">
        <text x="1032.5px" y="2603.5px" style="font-family:'GTWalsheim-Bold', 'GT Walsheim';font-weight:600;font-size:250px;fill:white;">C/C++</text>
    </g>
    <g transform="matrix(0.828149,0,0,0.898493,-420.119,-1564.66)">
        <text x="1032.5px" y="2603.5px" style="font-family:'GTWalsheim-Bold', 'GT Walsheim';font-weight:600;font-size:278.244px;fill:white;">Mak<tspan x="1601.23px " y="2603.5px ">e</tspan>Code</text>
    </g>
    <g transform="matrix(1,0,0,1,3334.13,-1869.88)">
        <text x="1032.5px" y="2603.5px" style="font-family:'GTWalsheim-Bold', 'GT Walsheim';font-weight:600;font-size:250px;fill:white;">Python</text>
    </g>
    <g transform="matrix(0.838569,0,0,0.838569,1595.63,-364.53)">
        <text x="1032.5px" y="2603.5px" style="font-family:'GTWalsheim-Bold', 'GT Walsheim';font-weight:600;font-size:238.501px;fill:white;">L<tspan x="1135.77px " y="2603.5px ">a</tspan>ncas<tspan x="1838.63px 1927.6px " y="2603.5px 2603.5px ">te</tspan>r</text>
        <text x="1032.5px" y="2842px" style="font-family:'GTWalsheim-Bold', 'GT Walsheim';font-weight:600;font-size:238.501px;fill:white;">Univ<tspan x="1535.5px 1673.11px 1770.18px " y="2842px 2842px 2842px ">ers</tspan>ity</text>
    </g>
    <g transform="matrix(0.838569,0,0,0.838569,-358.424,-356.73)">
        <text x="1032.5px" y="2603.5px" style="font-family:'GTWalsheim-Bold', 'GT Walsheim';font-weight:600;font-size:238.501px;fill:white;">Micr<tspan x="1548.85px " y="2603.5px ">o</tspan>so<tspan x="1953.83px " y="2603.5px ">f</tspan>t</text>
    </g>
    <g transform="matrix(0.838569,0,0,0.838569,3294.93,-356.73)">
        <text x="1032.5px" y="2603.5px" style="font-family:'GTWalsheim-Bold', 'GT Walsheim';font-weight:600;font-size:238.501px;fill:white;">PSF + friends</text>
    </g>
</svg>
