<?xml version="1.0" encoding="UTF-8" standalone="no"?>
<svg
   xmlns:dc="http://purl.org/dc/elements/1.1/"
   xmlns:cc="http://creativecommons.org/ns#"
   xmlns:rdf="http://www.w3.org/1999/02/22-rdf-syntax-ns#"
   xmlns:svg="http://www.w3.org/2000/svg"
   xmlns="http://www.w3.org/2000/svg"
   xmlns:sodipodi="http://sodipodi.sourceforge.net/DTD/sodipodi-0.dtd"
   xmlns:inkscape="http://www.inkscape.org/namespaces/inkscape"
   width="100%"
   height="100%"
   viewBox="0 0 5906 5906"
   version="1.1"
   xml:space="preserve"
   style="fill-rule:evenodd;clip-rule:evenodd;stroke-linejoin:round;stroke-miterlimit:2;"
   id="svg4141"
   inkscape:version="0.91+devel+osxmenu r12922"
   sodipodi:docname="software-overview.svg"><metadata
     id="metadata4243"><rdf:RDF><cc:Work
         rdf:about=""><dc:format>image/svg+xml</dc:format><dc:type
           rdf:resource="http://purl.org/dc/dcmitype/StillImage" /></cc:Work></rdf:RDF></metadata><defs
     id="defs4241" /><sodipodi:namedview
     pagecolor="#ffffff"
     bordercolor="#666666"
     borderopacity="1"
     objecttolerance="10"
     gridtolerance="10"
     guidetolerance="10"
     inkscape:pageopacity="0"
     inkscape:pageshadow="2"
     inkscape:window-width="1366"
     inkscape:window-height="949"
     id="namedview4239"
     showgrid="false"
     inkscape:zoom="0.11302215"
     inkscape:cx="4833.5902"
     inkscape:cy="2953"
     inkscape:window-x="918"
     inkscape:window-y="148"
     inkscape:window-maximized="0"
     inkscape:current-layer="g4183" /><g
     transform="matrix(3.97289,0,0,2.63491,-386.97,-474.458)"
     id="g4143"><path
       d="M1532.56,319.553C1532.56,264.13 1502.72,219.134 1465.96,219.134L205.304,219.134C168.547,219.134 138.704,264.13 138.704,319.553L138.704,2127.1C138.704,2182.52 168.547,2227.52 205.304,2227.52L1465.96,2227.52C1502.72,2227.52 1532.56,2182.52 1532.56,2127.1L1532.56,319.553Z"
       style="fill:rgb(205,3,101);"
       id="path4145" /></g><g
     transform="matrix(1.00637,0,0,1.58453,-51.836,-1081.89)"
     id="g4147"><path
       d="M5499.58,2348.05C5499.58,2304.15 5443.46,2268.5 5374.33,2268.5L551.055,2268.5C481.927,2268.5 425.803,2304.15 425.803,2348.05L425.803,3779.95C425.803,3823.86 481.927,3859.5 551.055,3859.5L5374.33,3859.5C5443.46,3859.5 5499.58,3823.86 5499.58,3779.95L5499.58,2348.05Z"
       style="fill:rgb(108,75,193);"
       id="path4149" /></g><g
     transform="matrix(1.59042,0,0,1.59124,-1440.88,-3181.43)"
     id="g4151"><path
       d="M3938.4,3630.4C3938.4,3601.69 3915.08,3578.38 3886.35,3578.38L1194.87,3578.38C1166.14,3578.38 1142.82,3601.69 1142.82,3630.4L1142.82,4566.84C1142.82,4595.56 1166.14,4618.87 1194.87,4618.87L3886.35,4618.87C3915.08,4618.87 3938.4,4595.56 3938.4,4566.84L3938.4,3630.4Z"
       style="fill:rgb(123,205,194);"
       id="path4153" /></g><g
     transform="matrix(1.09533,0,0,0.695327,33.7129,1173.71)"
     id="g4155"><path
       d="M3762.47,1985.2C3762.47,1950.4 3744.53,1922.15 3722.44,1922.15L352.51,1922.15C330.419,1922.15 312.484,1950.4 312.484,1985.2L312.484,3120.13C312.484,3154.93 330.419,3183.18 352.51,3183.18L3722.44,3183.18C3744.53,3183.18 3762.47,3154.93 3762.47,3120.13L3762.47,1985.2Z"
       style="fill:rgb(231,100,92);"
       id="path4157" /></g><g
     transform="matrix(1,0,0,1,-419.668,222.246)"
     id="g4159"><text
       x="1032.5px"
       y="2603.5px"
       style="font-family:'GTWalsheim-Bold', 'GT Walsheim', sans-serif;font-weight:600;font-size:250px;fill:white;"
       id="text4161">DAL</text>
<text
       x="1032.5px"
       y="2803.5px"
       style="font-family:'GTWalsheim-Bold', 'GT Walsheim', sans-serif;font-weight:600;font-size:200px;fill:white;"
       id="text4165">Lancaster University</text>
</g><g
     transform="matrix(1,0,0,1,-425.068,1998.48)"
     id="g4173"><text
       x="1032.5px"
       y="2603.5px"
       style="font-family:'GTWalsheim-Bold', 'GT Walsheim', sans-serif;font-weight:600;font-size:250px;fill:white;"
       id="text4175">NRF5 SDK</text>
<text
       x="1032.5px"
       y="2803.5px"
       style="font-family:'GTWalsheim-Bold', 'GT Walsheim', sans-serif;font-weight:600;font-size:200px;fill:white;"
       id="text4177">Nordic Semiconductor</text>
</g><g
     transform="matrix(1,0,0,1,-425.068,1157.57)"
     id="g4183"><text
       x="1032.5"
       y="2603.5"
       style="font-weight:600;font-size:250px;font-family:GTWalsheim-Bold, 'GT Walsheim', sans-serif;fill:#ffffff"
       id="text4185">Mbed</text>
<text
       x="1032.5"
       y="2803.5"
       style="font-weight:600;font-size:200px;font-family:GTWalsheim-Bold, 'GT Walsheim', sans-serif;fill:#ffffff"
       id="text4187">Arm</text>
</g><g
     transform="matrix(1,0,0,1.3759,-521.489,-1271.44)"
     id="g4189"><path
       d="M2269.19,1209.12C2269.19,1181.62 2238.47,1159.29 2200.64,1159.29L966.718,1159.29C928.884,1159.29 898.167,1181.62 898.167,1209.12L898.167,2547.51C898.167,2575.01 928.884,2597.33 966.718,2597.33L2200.64,2597.33C2238.47,2597.33 2269.19,2575.01 2269.19,2547.51L2269.19,1209.12Z"
       style="fill:rgb(231,100,92);"
       id="path4191" /></g><g
     transform="matrix(1,0,0,1.37626,1383.99,-1272.36)"
     id="g4193"><path
       d="M2269.19,1209.1C2269.19,1181.61 2238.47,1159.29 2200.64,1159.29L966.718,1159.29C928.884,1159.29 898.167,1181.61 898.167,1209.1L898.167,2547.52C898.167,2575.01 928.884,2597.33 966.718,2597.33L2200.64,2597.33C2238.47,2597.33 2269.19,2575.01 2269.19,2547.52L2269.19,1209.1Z"
       style="fill:rgb(231,100,92);"
       id="path4195" /></g><g
     transform="matrix(1,0,0,1.3759,3213.58,-1271.44)"
     id="g4197"><path
       d="M2269.19,1209.12C2269.19,1181.62 2238.47,1159.29 2200.64,1159.29L966.718,1159.29C928.884,1159.29 898.167,1181.62 898.167,1209.12L898.167,2547.51C898.167,2575.01 928.884,2597.33 966.718,2597.33L2200.64,2597.33C2238.47,2597.33 2269.19,2575.01 2269.19,2547.51L2269.19,1209.12Z"
       style="fill:rgb(231,100,92);"
       id="path4199" /></g><g
     transform="matrix(1,0,0,1,1516.26,-1843.63)"
     id="g4201"><text
       x="1032.5px"
       y="2603.5px"
       style="font-family:'GTWalsheim-Bold', 'GT Walsheim', sans-serif;font-weight:600;font-size:250px;fill:white;"
       id="text4203">C/C++</text>
</g><g
     transform="matrix(0.828149,0,0,0.898493,-420.119,-1564.66)"
     id="g4205"><text
       x="1032.5px"
       y="2603.5px"
       style="font-family:'GTWalsheim-Bold', 'GT Walsheim', sans-serif;font-weight:600;font-size:278.244px;fill:white;"
       id="text4207">MakeCode</text>
</g><g
     transform="matrix(1,0,0,1,3334.13,-1869.88)"
     id="g4211"><text
       x="1032.5px"
       y="2603.5px"
       style="font-family:'GTWalsheim-Bold', 'GT Walsheim', sans-serif;font-weight:600;font-size:250px;fill:white;"
       id="text4213">Python</text>
</g><g
     transform="matrix(0.838569,0,0,0.838569,1595.63,-364.53)"
     id="g4215"><text
       x="1032.5px"
       y="2603.5px"
       style="font-family:'GTWalsheim-Bold', 'GT Walsheim', sans-serif;font-weight:600;font-size:238.501px;fill:white;"
       id="text4217">Lancaster</text>
<text
       x="1032.5px"
       y="2842px"
       style="font-family:'GTWalsheim-Bold', 'GT Walsheim', sans-serif;font-weight:600;font-size:238.501px;fill:white;"
       id="text4223">University</text>
</g><g
     transform="matrix(0.838569,0,0,0.838569,-358.424,-356.73)"
     id="g4227"><text
       x="1032.5px"
       y="2603.5px"
       style="font-family:'GTWalsheim-Bold', 'GT Walsheim', sans-serif;font-weight:600;font-size:238.501px;fill:white;"
       id="text4229">Microsoft</text>
</g><g
     transform="matrix(0.838569,0,0,0.838569,3294.93,-356.73)"
     id="g4235"><text
       x="1032.5px"
       y="2603.5px"
       style="font-family:'GTWalsheim-Bold', 'GT Walsheim', sans-serif;font-weight:600;font-size:238.501px;fill:white;"
       id="text4237">PSF + friends</text>
</g></svg>
