<?xml version="1.0" encoding="UTF-8" standalone="no"?>
<!DOCTYPE svg PUBLIC "-//W3C//DTD SVG 1.1//EN" "http://www.w3.org/Graphics/SVG/1.1/DTD/svg11.dtd">
<svg width="100%" height="100%" viewBox="0 0 5906 5906" version="1.1" xmlns="http://www.w3.org/2000/svg" xmlns:xlink="http://www.w3.org/1999/xlink" xml:space="preserve" xmlns:serif="http://www.serif.com/" style="fill-rule:evenodd;clip-rule:evenodd;stroke-linejoin:round;stroke-miterlimit:2;">
    <g transform="matrix(3.97289,0,0,2.17779,-386.97,-374.288)">
        <path d="M1532.56,319.553C1532.56,264.13 1507.9,219.134 1477.52,219.134L193.75,219.134C163.369,219.134 138.704,264.13 138.704,319.553L138.704,2127.1C138.704,2182.52 163.369,2227.52 193.75,2227.52L1477.52,2227.52C1507.9,2227.52 1532.56,2182.52 1532.56,2127.1L1532.56,319.553Z" style="fill:rgb(205,3,101);"/>
    </g>
    <g transform="matrix(1.00637,0,0,1.09043,-51.836,38.9885)">
        <path d="M5499.58,2348.05C5499.58,2304.15 5460.96,2268.5 5413.39,2268.5L511.998,2268.5C464.426,2268.5 425.803,2304.15 425.803,2348.05L425.803,3779.95C425.803,3823.86 464.426,3859.5 511.998,3859.5L5413.39,3859.5C5460.96,3859.5 5499.58,3823.86 5499.58,3779.95L5499.58,2348.05Z" style="fill:rgb(108,75,193);"/>
    </g>
    <g transform="matrix(1.29689,0,0,0.695327,-29.2715,1166.71)">
        <path d="M3762.47,1985.2C3762.47,1950.4 3747.32,1922.15 3728.66,1922.15L346.289,1922.15C327.631,1922.15 312.484,1950.4 312.484,1985.2L312.484,3120.13C312.484,3154.93 327.631,3183.18 346.289,3183.18L3728.66,3183.18C3747.32,3183.18 3762.47,3154.93 3762.47,3120.13L3762.47,1985.2Z" style="fill:rgb(231,100,92);"/>
    </g>
    <g transform="matrix(1,0,0,1,-419.668,222.246)">
        <text x="1032.5px" y="2603.5px" style="font-family:'GTWalsheim-Bold', 'GT Walsheim';font-weight:600;font-size:250px;fill:white;">COD<tspan x="1604.5px " y="2603.5px ">A</tspan>L</text>
        <text x="1032.5px" y="2803.5px" style="font-family:'GTWalsheim-Bold', 'GT Walsheim';font-weight:600;font-size:200px;fill:white;">L<tspan x="1119.1px " y="2803.5px ">a</tspan>ncas<tspan x="1708.5px 1783.1px " y="2803.5px 2803.5px ">te</tspan>r Univ<tspan x="2452.3px 2567.7px 2649.1px " y="2803.5px 2803.5px 2803.5px ">ers</tspan>ity</text>
    </g>
    <g transform="matrix(1,0,0,1,-425.068,1218.07)">
        <text x="1032.5px" y="2603.5px" style="font-family:'GTWalsheim-Bold', 'GT Walsheim';font-weight:600;font-size:250px;fill:white;">NRF5 SDK</text>
        <text x="1032.5px" y="2803.5px" style="font-family:'GTWalsheim-Bold', 'GT Walsheim';font-weight:600;font-size:200px;fill:white;">Nor<tspan x="1377.1px " y="2803.5px ">d</tspan>ic Semic<tspan x="2321.5px " y="2803.5px ">o</tspan>nductor</text>
    </g>
    <g transform="matrix(1,0,0,1.3759,-521.489,-1271.44)">
        <path d="M2269.19,1209.12C2269.19,1181.62 2238.47,1159.29 2200.64,1159.29L966.718,1159.29C928.884,1159.29 898.167,1181.62 898.167,1209.12L898.167,2547.51C898.167,2575.01 928.884,2597.33 966.718,2597.33L2200.64,2597.33C2238.47,2597.33 2269.19,2575.01 2269.19,2547.51L2269.19,1209.12Z" style="fill:rgb(231,100,92);"/>
    </g>
    <g transform="matrix(1,0,0,1.37626,1383.99,-1272.36)">
        <path d="M2269.19,1209.1C2269.19,1181.61 2238.47,1159.29 2200.64,1159.29L966.718,1159.29C928.884,1159.29 898.167,1181.61 898.167,1209.1L898.167,2547.52C898.167,2575.01 928.884,2597.33 966.718,2597.33L2200.64,2597.33C2238.47,2597.33 2269.19,2575.01 2269.19,2547.52L2269.19,1209.1Z" style="fill:rgb(231,100,92);"/>
    </g>
    <g transform="matrix(1,0,0,1.3759,3213.58,-1271.44)">
        <path d="M2269.19,1209.12C2269.19,1181.62 2238.47,1159.29 2200.64,1159.29L966.718,1159.29C928.884,1159.29 898.167,1181.62 898.167,1209.12L898.167,2547.51C898.167,2575.01 928.884,2597.33 966.718,2597.33L2200.64,2597.33C2238.47,2597.33 2269.19,2575.01 2269.19,2547.51L2269.19,1209.12Z" style="fill:rgb(231,100,92);"/>
    </g>
    <g transform="matrix(1,0,0,1,1516.26,-1843.63)">
        <text x="1032.5px" y="2603.5px" style="font-family:'GTWalsheim-Bold', 'GT Walsheim';font-weight:600;font-size:250px;fill:white;">C/C++</text>
    </g>
    <g transform="matrix(0.828149,0,0,0.898493,-420.119,-1564.66)">
        <text x="1032.5px" y="2603.5px" style="font-family:'GTWalsheim-Bold', 'GT Walsheim';font-weight:600;font-size:278.244px;fill:white;">Mak<tspan x="1601.23px " y="2603.5px ">e</tspan>Code</text>
    </g>
    <g transform="matrix(1,0,0,1,3334.13,-1869.88)">
        <text x="1032.5px" y="2603.5px" style="font-family:'GTWalsheim-Bold', 'GT Walsheim';font-weight:600;font-size:250px;fill:white;">Python</text>
    </g>
    <g transform="matrix(0.838569,0,0,0.838569,1595.63,-364.53)">
        <text x="1032.5px" y="2603.5px" style="font-family:'GTWalsheim-Bold', 'GT Walsheim';font-weight:600;font-size:238.501px;fill:white;">L<tspan x="1135.77px " y="2603.5px ">a</tspan>ncas<tspan x="1838.63px 1927.6px " y="2603.5px 2603.5px ">te</tspan>r</text>
        <text x="1032.5px" y="2842px" style="font-family:'GTWalsheim-Bold', 'GT Walsheim';font-weight:600;font-size:238.501px;fill:white;">Univ<tspan x="1535.5px 1673.11px 1770.18px " y="2842px 2842px 2842px ">ers</tspan>ity</text>
    </g>
    <g transform="matrix(0.838569,0,0,0.838569,-358.424,-356.73)">
        <text x="1032.5px" y="2603.5px" style="font-family:'GTWalsheim-Bold', 'GT Walsheim';font-weight:600;font-size:238.501px;fill:white;">Micr<tspan x="1548.85px " y="2603.5px ">o</tspan>so<tspan x="1953.83px " y="2603.5px ">f</tspan>t</text>
    </g>
    <g transform="matrix(0.838569,0,0,0.838569,3294.93,-356.73)">
        <text x="1032.5px" y="2603.5px" style="font-family:'GTWalsheim-Bold', 'GT Walsheim';font-weight:600;font-size:238.501px;fill:white;">PSF + friends</text>
    </g>
</svg>
