<?xml version="1.0" encoding="UTF-8" standalone="no"?>
<svg
   width="100%"
   height="100%"
   viewBox="0 0 960 540"
   version="1.1"
   xml:space="preserve"
   style="fill-rule:evenodd;clip-rule:evenodd;stroke-miterlimit:8;"
   id="svg378"
   sodipodi:docname="v2-2-block.svg"
   inkscape:version="1.1.2 (b8e25be8, 2022-02-05)"
   xmlns:inkscape="http://www.inkscape.org/namespaces/inkscape"
   xmlns:sodipodi="http://sodipodi.sourceforge.net/DTD/sodipodi-0.dtd"
   xmlns="http://www.w3.org/2000/svg"
   xmlns:svg="http://www.w3.org/2000/svg"><defs
   id="defs382" /><sodipodi:namedview
   id="namedview380"
   pagecolor="#ffffff"
   bordercolor="#666666"
   borderopacity="1.0"
   inkscape:pageshadow="2"
   inkscape:pageopacity="0.0"
   inkscape:pagecheckerboard="0"
   showgrid="false"
   inkscape:zoom="0.97222222"
   inkscape:cx="480.34286"
   inkscape:cy="270"
   inkscape:window-width="1296"
   inkscape:window-height="969"
   inkscape:window-x="0"
   inkscape:window-y="25"
   inkscape:window-maximized="0"
   inkscape:current-layer="g12" />
    <g
   id="g12">
        <g
   id="g17">
            <g
   id="path19"
   transform="matrix(1,0,0,-1,0,540)">
                <rect
   x="0"
   y="0"
   width="959.76"
   height="540"
   style="fill:white;fill-rule:nonzero;"
   id="rect2" />
            </g>
        </g>
        <g
   id="path21"
   transform="matrix(1,0,0,-1,0,540)">
            <rect
   x="0"
   y="0"
   width="959.75"
   height="540"
   style="fill:white;fill-rule:nonzero;"
   id="rect6" />
        </g>
        <g
   transform="matrix(0.777304,0,0,0.746385,129.448,57.5153)"
   id="g15">
            <text
   x="695.41px"
   y="203.054px"
   style="font-family:'Helvetica-Bold', 'Helvetica';font-weight:700;font-size:12px;"
   id="text9">nRF52833-QDAA</text>
            <text
   x="737.422px"
   y="215.054px"
   style="font-family:'Helvetica-Bold', 'Helvetica';font-weight:700;font-size:12px;"
   id="text11">or</text>
            <text
   x="695.40997"
   y="239.054"
   style="font-weight:700;font-size:12px;font-family:Helvetica-Bold, Helvetica"
   id="text13">nRF52820-QDAA</text>
        </g>
        <g
   id="path23"
   transform="matrix(7.87402e-05,0,0,7.87402e-05,369.103,160.032)">
            <rect
   x="0"
   y="0"
   width="1.40839e+06"
   height="1.29803e+06"
   style="fill:none;fill-rule:nonzero;stroke:black;stroke-width:19050px;"
   id="rect17" />
        </g>
        <g
   transform="matrix(0.201931,0,0,0.201931,385.421,213.914)"
   id="g23">
            <g
   id="text25">
                <text
   x="0px"
   y="0px"
   style="font-family:'Helvetica-Bold', 'Helvetica';font-weight:700;font-size:50px;"
   id="text20">nRF52833-QIAA</text>
            </g>
        </g>
        <g
   id="path29"
   transform="matrix(7.87402e-05,0,0,7.87402e-05,649.385,161.749)">
            <rect
   x="0"
   y="0"
   width="1.40839e+06"
   height="1.29803e+06"
   style="fill:none;fill-rule:nonzero;stroke:black;stroke-width:19050px;"
   id="rect25" />
        </g>
        <g
   transform="matrix(0.24,0,0,0.24,686.52,216.72)"
   id="g29">
            <g
   id="text31">
            </g>
        </g>
        <g
   id="path35"
   transform="matrix(7.87402e-05,0,0,7.87402e-05,667.612,85.4984)">
            <rect
   x="0"
   y="0"
   width="928231"
   height="430924"
   style="fill:none;fill-rule:nonzero;stroke:rgb(0,200,0);stroke-width:19050px;"
   id="rect31" />
        </g>
        <g
   transform="matrix(0.24,0,0,0.24,678.282,106.32)"
   id="g37">
            <g
   id="text37">
                <text
   x="0px"
   y="0px"
   style="font-family:'Helvetica';font-size:50px;"
   id="text34">Regulator</text>
            </g>
        </g>
        <g
   id="path41"
   transform="matrix(7.87402e-05,0,0,7.87402e-05,810.358,200.859)">
            <rect
   x="0"
   y="0"
   width="651641"
   height="430924"
   style="fill:none;fill-rule:nonzero;stroke:black;stroke-width:19050px;"
   id="rect39" />
        </g>
        <g
   transform="matrix(0.24,0,0,0.24,821.638,214.56)"
   id="g45">
            <g
   id="text43">
                <text
   x="0px"
   y="0px"
   style="font-family:'Helvetica';font-size:45.833px;"
   id="text42">Reset</text>
            </g>
        </g>
        <g
   transform="matrix(0.24,0,0,0.24,824.953,227.52)"
   id="g51">
            <g
   id="g49">
                <text
   x="0px"
   y="0px"
   style="font-family:'Helvetica';font-size:45.833px;"
   id="text47">BTN</text>
            </g>
        </g>
        <g
   id="path51"
   transform="matrix(7.87402e-05,0,0,7.87402e-05,260.69,206.683)">
            <rect
   x="0"
   y="0"
   width="641133"
   height="430924"
   style="fill:none;fill-rule:nonzero;stroke:black;stroke-width:19050px;"
   id="rect53" />
        </g>
        <g
   transform="matrix(0.24,0,0,0.24,275.619,227.52)"
   id="g59">
            <g
   id="text53">
                <text
   x="0px"
   y="0px"
   style="font-family:'Helvetica';font-size:50px;"
   id="text56">Xtal</text>
            </g>
        </g>
        <g
   id="path57"
   transform="matrix(7.87402e-05,0,0,7.87402e-05,806.828,58.5876)">
            <rect
   x="0"
   y="0"
   width="651641"
   height="430924"
   style="fill:none;fill-rule:nonzero;stroke:black;stroke-width:19050px;"
   id="rect61" />
        </g>
        <g
   transform="matrix(0.24,0,0,0.24,821.796,79.44)"
   id="g67">
            <g
   id="text59">
                <text
   x="0px"
   y="0px"
   style="font-family:'Helvetica';font-size:50px;"
   id="text64">JST</text>
            </g>
        </g>
        <g
   id="path63"
   transform="matrix(7.87402e-05,0,0,7.87402e-05,807.543,111.339)">
            <rect
   x="0"
   y="0"
   width="651641"
   height="430924"
   style="fill:none;fill-rule:nonzero;stroke:black;stroke-width:19050px;"
   id="rect69" />
        </g>
        <g
   transform="matrix(0.24,0,0,0.24,820.885,132)"
   id="g75">
            <g
   id="text65">
                <text
   x="0px"
   y="0px"
   style="font-family:'Helvetica';font-size:50px;"
   id="text72">USB</text>
            </g>
        </g>
        <g
   id="path69"
   transform="matrix(7.87402e-05,0,0,7.87402e-05,260.69,154.625)">
            <rect
   x="0"
   y="0"
   width="825062"
   height="430924"
   style="fill:none;fill-rule:nonzero;stroke:black;stroke-width:19050px;"
   id="rect77" />
        </g>
        <g
   transform="matrix(0.24,0,0,0.24,270.922,175.44)"
   id="g83">
            <g
   id="text71">
                <text
   x="0px"
   y="0px"
   style="font-family:'Helvetica';font-size:50px;"
   id="text80">Antenna</text>
            </g>
        </g>
        <g
   id="path75"
   transform="matrix(-7.87402e-05,0,0,7.87402e-05,648.325,223.561)">
            <path
   d="M0,0L1.05211e+06,0L1.05211e+06,2794L2.10421e+06,2794"
   style="fill:none;fill-rule:nonzero;stroke:black;stroke-width:31750px;"
   id="path85" />
        </g>
        <g
   id="path77"
   transform="matrix(-7.87402e-05,0,0,-7.87402e-05,649.335,194.028)">
            <path
   d="M0,0L1.06845e+06,0L1.06845e+06,742L2.1369e+06,742"
   style="fill:none;fill-rule:nonzero;stroke:black;stroke-width:31750px;"
   id="path88" />
        </g>
        <g
   transform="matrix(0.24,0,0,0.24,547.461,188.88)"
   id="g94">
            <g
   id="text79">
                <text
   x="0px"
   y="0px"
   style="font-family:'Helvetica';font-size:45.833px;"
   id="text91">SWD</text>
            </g>
        </g>
        <g
   transform="matrix(0.24,0,0,0.24,545.949,218.64)"
   id="g99">
            <g
   id="text83">
                <text
   x="0px"
   y="0px"
   style="font-family:'Helvetica';font-size:45.833px;"
   id="text96">UART</text>
            </g>
        </g>
        <g
   id="path87"
   transform="matrix(7.87402e-05,0,0,7.87402e-05,325.655,171.59)">
            <path
   d="M0,0L551793,1"
   style="fill:none;fill-rule:nonzero;stroke:black;stroke-width:31750px;"
   id="path101" />
        </g>
        <g
   id="path89"
   transform="matrix(7.87402e-05,0,0,7.87402e-05,311.173,223.649)">
            <path
   d="M0,0L735722,1"
   style="fill:none;fill-rule:nonzero;stroke:black;stroke-width:31750px;"
   id="path104" />
        </g>
        <g
   id="path91"
   transform="matrix(7.87402e-05,0,0,7.87402e-05,740.701,102.464)">
            <path
   d="M0,0L424443,0L424443,328177L848886,328177"
   style="fill:none;fill-rule:nonzero;stroke:rgb(231,100,92);stroke-width:38100px;"
   id="path107" />
        </g>
        <g
   id="path93"
   transform="matrix(7.87402e-05,0,0,-7.87402e-05,758.516,183.208)">
            <path
   d="M0,0L311322,0L311322,697274L622643,697274"
   style="fill:none;fill-rule:nonzero;stroke:black;stroke-width:31750px;"
   id="path110" />
        </g>
        <g
   id="path95"
   transform="matrix(7.87402e-05,0,0,-7.87402e-05,760.827,243.944)">
            <path
   d="M0,0L954863,0L954863,116262"
   style="fill:none;fill-rule:nonzero;stroke:black;stroke-width:31750px;"
   id="path113" />
        </g>
        <g
   id="path97"
   transform="matrix(7.87402e-05,0,0,7.87402e-05,424.552,132.818)">
            <path
   d="M0,0L1,345626"
   style="fill:none;fill-rule:nonzero;stroke:rgb(205,3,101);stroke-width:38100px;"
   id="path116" />
        </g>
        <g
   id="path99"
   transform="matrix(7.87402e-05,0,0,7.87402e-05,154.498,132.818)">
            <path
   d="M0,0L1,3.6874e+06"
   style="fill:none;fill-rule:nonzero;stroke:rgb(192,0,0);stroke-width:38100px;"
   id="path119" />
        </g>
        <g
   transform="matrix(0.24,0,0,0.24,730.766,246.48)"
   id="g125">
            <g
   id="text101">
                <text
   x="0px"
   y="0px"
   style="font-family:'Helvetica';font-size:37.5px;"
   id="text122">GPIO</text>
            </g>
        </g>
        <g
   transform="matrix(0.24,0,0,0.24,656.535,196.56)"
   id="g130">
            <g
   id="text105">
                <text
   x="0px"
   y="0px"
   style="font-family:'Helvetica';font-size:37.5px;"
   id="text127">GPIO</text>
            </g>
        </g>
        <g
   id="path109"
   transform="matrix(7.87402e-05,0,0,7.87402e-05,807.844,255.76)">
            <rect
   x="0"
   y="0"
   width="715496"
   height="430924"
   style="fill:none;fill-rule:nonzero;stroke:black;stroke-width:19050px;"
   id="rect132" />
        </g>
        <g
   transform="matrix(0.24,0,0,0.24,822.513,276.24)"
   id="g138">
            <g
   id="text111">
                <text
   x="0px"
   y="0px"
   style="font-family:'Helvetica';font-size:45.833px;"
   id="text135">LEDs</text>
            </g>
        </g>
        <g
   id="path115"
   transform="matrix(7.87402e-05,0,0,7.87402e-05,760.827,243.944)">
            <path
   d="M0,0L954862,0L954862,150064"
   style="fill:none;fill-rule:nonzero;stroke:black;stroke-width:31750px;"
   id="path140" />
        </g>
        <g
   id="path117"
   transform="matrix(-7.87402e-05,0,0,-7.87402e-05,647.725,253.132)">
            <path
   d="M0,0L1.06254e+06,0L1.06254e+06,4298L2.12508e+06,4298"
   style="fill:none;fill-rule:nonzero;stroke:rgb(0,200,0);stroke-width:31750px;"
   id="path143" />
        </g>
        <g
   id="g148"
   transform="matrix(7.87402e-05,0,0,7.87402e-05,188.905,322.103)">
            <rect
   x="0"
   y="0"
   width="641133"
   height="430924"
   style="fill:none;fill-rule:nonzero;stroke:black;stroke-width:19050px;"
   id="rect146" />
        </g>
        <g
   transform="matrix(0.24,0,0,0.24,199.146,335.76)"
   id="g153">
            <g
   id="text121">
                <text
   x="0px"
   y="0px"
   style="font-family:'Helvetica';font-size:50px;"
   id="text150">BTNs</text>
            </g>
        </g>
        <g
   transform="matrix(0.24,0,0,0.24,202.646,349.68)"
   id="g158">
            <g
   id="text125">
                <text
   x="0px"
   y="0px"
   style="font-family:'Helvetica';font-size:50px;"
   id="text155">A+B</text>
            </g>
        </g>
        <g
   id="path129"
   transform="matrix(7.87402e-05,0,0,7.87402e-05,251.694,322.103)">
            <rect
   x="0"
   y="0"
   width="998486"
   height="956441"
   style="fill:none;fill-rule:nonzero;stroke:black;stroke-width:19050px;"
   id="rect160" />
        </g>
        <g
   transform="matrix(0.24,0,0,0.24,268.067,356.4)"
   id="g166">
            <g
   id="text131">
                <text
   x="0px"
   y="0px"
   style="font-family:'Helvetica';font-size:50px;"
   id="text163">5x5 LED</text>
            </g>
        </g>
        <g
   transform="matrix(0.24,0,0,0.24,274.692,370.32)"
   id="g172">
            <g
   id="g170">
                <text
   x="0px"
   y="0px"
   style="font-family:'Helvetica';font-size:50px;"
   id="text168">Matrix</text>
            </g>
        </g>
        <g
   id="path139"
   transform="matrix(7.87402e-05,0,0,7.87402e-05,143.542,422.77)">
            <rect
   x="0"
   y="0"
   width="5.31921e+06"
   height="546538"
   style="fill:none;fill-rule:nonzero;stroke:black;stroke-width:19050px;"
   id="rect174" />
        </g>
        <g
   transform="matrix(0.24,0,0,0.24,309.772,448.08)"
   id="g180">
            <g
   id="text141">
                <text
   x="0px"
   y="0px"
   style="font-family:'Helvetica';font-size:50px;"
   id="text177">Edge Connector</text>
            </g>
        </g>
        <g
   id="path145"
   transform="matrix(0,-7.87402e-05,7.87402e-05,0,291.004,322.103)">
            <path
   d="M0,0L373761,0L373761,1.1545e+06"
   style="fill:none;fill-rule:nonzero;stroke:black;stroke-width:31750px;"
   id="path182" />
        </g>
        <g
   id="path147"
   transform="matrix(7.87402e-05,0,0,-7.87402e-05,214.365,321.709)">
            <path
   d="M0,0L7054.5,0L7054.5,361033L983928,361033"
   style="fill:none;fill-rule:nonzero;stroke:black;stroke-width:31750px;"
   id="path185" />
        </g>
        <g
   id="path149"
   transform="matrix(0,7.87402e-05,-7.87402e-05,0,214.146,356.034)">
            <path
   d="M0,0L421278,0L421278,1L842556,1"
   style="fill:none;fill-rule:nonzero;stroke:black;stroke-width:31750px;"
   id="path188" />
        </g>
        <g
   id="path151"
   transform="matrix(0,7.87402e-05,7.87402e-05,0,291.004,397.413)">
            <path
   d="M0,0L163522,0L163522,1L327043,1"
   style="fill:none;fill-rule:nonzero;stroke:black;stroke-width:31750px;"
   id="path191" />
        </g>
        <g
   transform="matrix(0.24,0,0,0.24,238.499,414.96)"
   id="g197">
            <g
   id="text153">
                <text
   x="0px"
   y="0px"
   style="font-family:'Helvetica';font-size:41.667px;"
   id="text194">(Cols only)</text>
            </g>
        </g>
        <g
   transform="matrix(0.24,0,0,0.24,374.931,254.88)"
   id="g202">
            <g
   id="text157">
                <text
   x="0px"
   y="0px"
   style="font-family:'Helvetica';font-size:37.5px;"
   id="text199">GPIO</text>
            </g>
        </g>
        <g
   id="path161"
   transform="matrix(0,-7.87402e-05,7.87402e-05,0,350.482,422.607)">
            <path
   d="M0,0L1.64913e+06,0L1.64913e+06,455662L2.04609e+06,455662"
   style="fill:none;fill-rule:nonzero;stroke:black;stroke-width:31750px;"
   id="path204" />
        </g>
        <g
   transform="matrix(0.24,0,0,0.24,654.925,255.6)"
   id="g211">
            <g
   id="g209">
                <text
   x="0px"
   y="0px"
   style="font-family:'Helvetica';font-size:37.5px;fill:rgb(0,200,0);"
   id="text207">I2CS</text>
            </g>
        </g>
        <g
   id="path167"
   transform="matrix(7.87402e-05,0,0,7.87402e-05,556.399,321.709)">
            <rect
   x="0"
   y="0"
   width="998486"
   height="956441"
   style="fill:none;fill-rule:nonzero;stroke:black;stroke-width:19050px;"
   id="rect213" />
        </g>
        <g
   transform="matrix(0.24,0,0,0.24,577.774,341.52)"
   id="g219">
            <g
   id="text169">
                <text
   x="0px"
   y="0px"
   style="font-family:'Helvetica';font-size:50px;"
   id="text216">Motion</text>
            </g>
        </g>
        <g
   transform="matrix(0.24,0,0,0.24,576.774,355.68)"
   id="g224">
            <g
   id="text173">
                <text
   x="0px"
   y="0px"
   style="font-family:'Helvetica';font-size:50px;"
   id="text221">Sensor</text>
            </g>
        </g>
        <g
   transform="matrix(0.24,0,0,0.24,575.709,370.56)"
   id="g230">
            <g
   id="g228">
                <text
   x="0px"
   y="0px"
   style="font-family:'Helvetica';font-size:50px;"
   id="text226">(LSM &amp;</text>
            </g>
        </g>
        <g
   transform="matrix(0.24,0,0,0.24,577.334,384.48)"
   id="g235">
            <g
   id="text181">
                <text
   x="0px"
   y="0px"
   style="font-family:'Helvetica';font-size:50px;"
   id="text232">FXOS)</text>
            </g>
        </g>
        <g
   id="g239"
   transform="matrix(0,-7.87402e-05,-7.87402e-05,0,595.709,321.709)">
            <path
   d="M0,0L875232,0L875232,1.46448e+06"
   style="fill:none;fill-rule:nonzero;stroke:rgb(0,200,0);stroke-width:31750px;"
   id="path237" />
        </g>
        <g
   transform="matrix(0.24,0,0,0.24,535.474,247.92)"
   id="g244">
            <g
   id="text187">
                <text
   x="0px"
   y="0px"
   style="font-family:'Helvetica';font-size:45.833px;"
   id="text241">I2C Internal</text>
            </g>
        </g>
        <g
   id="g248"
   transform="matrix(7.87402e-05,0,0,7.87402e-05,456.33,321.72)">
            <rect
   x="0"
   y="0"
   width="998486"
   height="956441"
   style="fill:none;fill-rule:nonzero;stroke:rgb(0,200,0);stroke-width:19050px;"
   id="rect246" />
        </g>
        <g
   transform="matrix(0.24,0,0,0.24,473.391,363.12)"
   id="g253">
            <g
   id="text193">
                <text
   x="0px"
   y="0px"
   style="font-family:'Helvetica';font-size:50px;"
   id="text250">Speaker</text>
            </g>
        </g>
        <g
   id="path197"
   transform="matrix(7.87402e-05,0,0,7.87402e-05,362.003,319.854)">
            <rect
   x="0"
   y="0"
   width="998486"
   height="956441"
   style="fill:none;fill-rule:nonzero;stroke:rgb(0,200,0);stroke-width:19050px;"
   id="rect255" />
        </g>
        <g
   transform="matrix(0.24,0,0,0.24,372.314,361.2)"
   id="g262">
            <g
   id="g260">
                <text
   x="0px"
   y="0px"
   style="font-family:'Helvetica';font-size:50px;"
   id="text258">MEMS mic</text>
            </g>
        </g>
        <g
   id="path203"
   transform="matrix(0,-7.87402e-05,-7.87402e-05,0,401.314,319.854)">
            <path
   d="M0,0L345370,0L345370,189898L741121,189898"
   style="fill:none;fill-rule:nonzero;stroke:black;stroke-width:31750px;"
   id="path264" />
        </g>
        <g
   id="path205"
   transform="matrix(0,-7.87402e-05,-7.87402e-05,0,495.641,321.72)">
            <path
   d="M0,0L369825,0L369825,1.38785e+06L764827,1.38785e+06"
   style="fill:none;fill-rule:nonzero;stroke:black;stroke-width:31750px;"
   id="path267" />
        </g>
        <g
   transform="matrix(0.24,0,0,0.24,446.297,255.36)"
   id="g274">
            <g
   id="g272">
                <text
   x="0px"
   y="0px"
   style="font-family:'Helvetica';font-size:37.5px;"
   id="text270">I2CM0</text>
            </g>
        </g>
        <g
   transform="matrix(0.24,0,0,0.24,450.934,226.32)"
   id="g279">
            <g
   id="text211">
                <text
   x="0px"
   y="0px"
   style="font-family:'Helvetica';font-size:37.5px;"
   id="text276">UART</text>
            </g>
        </g>
        <g
   transform="matrix(0.24,0,0,0.24,655.525,226.08)"
   id="g284">
            <g
   id="text215">
                <text
   x="0px"
   y="0px"
   style="font-family:'Helvetica';font-size:37.5px;"
   id="text281">UART</text>
            </g>
        </g>
        <g
   transform="matrix(0.24,0,0,0.24,455.131,196.08)"
   id="g289">
            <g
   id="text219">
                <text
   x="0px"
   y="0px"
   style="font-family:'Helvetica';font-size:33.333px;"
   id="text286">SWD</text>
            </g>
        </g>
        <g
   transform="matrix(0.24,0,0,0.24,373.399,175.92)"
   id="g294">
            <g
   id="text223">
                <text
   x="0px"
   y="0px"
   style="font-family:'Helvetica';font-size:37.5px;"
   id="text291">ANT</text>
            </g>
        </g>
        <g
   transform="matrix(0.24,0,0,0.24,372.845,225.36)"
   id="g299">
            <g
   id="text227">
                <text
   x="0px"
   y="0px"
   style="font-family:'Helvetica';font-size:37.5px;"
   id="text296">Xtal</text>
            </g>
        </g>
        <g
   transform="matrix(0.24,0,0,0.24,732.495,185.76)"
   id="g304">
            <g
   id="text231">
                <text
   x="0px"
   y="0px"
   style="font-family:'Helvetica';font-size:37.5px;"
   id="text301">USB</text>
            </g>
        </g>
        <g
   id="path235"
   transform="matrix(7.87402e-05,0,0,-7.87402e-05,152.207,133.741)">
            <path
   d="M0,0L7.00976e+06,0L7.00976e+06,181760"
   style="fill:none;fill-rule:nonzero;stroke:rgb(192,0,0);stroke-width:31750px;"
   id="path306" />
        </g>
        <g
   id="g311"
   transform="matrix(7.87402e-05,0,0,-7.87402e-05,740.701,102.464)">
            <path
   d="M0,0L419906,0L419906,341768L839811,341768"
   style="fill:none;fill-rule:nonzero;stroke:rgb(231,100,92);stroke-width:38100px;"
   id="path309" />
        </g>
        <g
   id="path239"
   transform="matrix(0,7.87402e-05,7.87402e-05,0,704.157,119.429)">
            <path
   d="M0,0L268728,0L268728,8587L537456,8587"
   style="fill:none;fill-rule:nonzero;stroke:rgb(192,0,0);stroke-width:31750px;"
   id="path313" />
        </g>
        <g
   id="path241"
   transform="matrix(0,-7.87402e-05,-7.87402e-05,0,544.399,423.688)">
            <path
   d="M0,0L1.81604e+06,0L1.81604e+06,1.52206e+06L2.05041e+06,1.52206e+06"
   style="fill:none;fill-rule:nonzero;stroke:black;stroke-width:31750px;"
   id="path316" />
        </g>
        <g
   transform="matrix(0.24,0,0,0.24,537.26,435.36)"
   id="g322">
            <g
   id="text243">
                <text
   x="0px"
   y="0px"
   style="font-family:'Helvetica';font-size:37.5px;"
   id="text319">I2C</text>
            </g>
        </g>
        <g
   transform="matrix(0.24,0,0,0.24,151.39,435.6)"
   id="g327">
            <g
   id="text247">
                <text
   x="0px"
   y="0px"
   style="font-family:'Helvetica';font-size:37.5px;"
   id="text324">3V</text>
            </g>
        </g>
        <g
   transform="matrix(0.24,0,0,0.24,460.032,275.04)"
   id="g332">
            <g
   id="text251">
                <text
   x="0px"
   y="0px"
   style="font-family:'Helvetica';font-size:45.833px;"
   id="text329">I2C external</text>
            </g>
        </g>
        <g
   transform="matrix(0.24,0,0,0.24,412.965,255.84)"
   id="g337">
            <g
   id="text255">
                <text
   x="0px"
   y="0px"
   style="font-family:'Helvetica';font-size:37.5px;"
   id="text334">I2CM1</text>
            </g>
        </g>
        <g
   id="path259"
   transform="matrix(7.87402e-05,0,0,7.87402e-05,189.536,241.349)">
            <rect
   x="0"
   y="0"
   width="641133"
   height="430924"
   style="fill:none;fill-rule:nonzero;stroke:rgb(0,200,0);stroke-width:19050px;"
   id="rect339" />
        </g>
        <g
   transform="matrix(0.24,0,0,0.24,201.528,262.08)"
   id="g345">
            <g
   id="text261">
                <text
   x="0px"
   y="0px"
   style="font-family:'Helvetica';font-size:50px;"
   id="text342">Logo</text>
            </g>
        </g>
        <g
   id="path265"
   transform="matrix(0,7.87402e-05,7.87402e-05,0,214.778,275.28)">
            <path
   d="M0,0L114310,0L114310,2256L228620,2256"
   style="fill:none;fill-rule:nonzero;stroke:rgb(0,200,0);stroke-width:31750px;"
   id="path347" />
        </g>
        <g
   id="g352"
   transform="matrix(7.87402e-05,0,0,7.87402e-05,676.714,371.358)">
            <path
   d="M0,0L595028,1"
   style="fill:none;fill-rule:nonzero;stroke:rgb(0,200,0);stroke-width:19050px;"
   id="path350" />
        </g>
        <g
   transform="matrix(0.24,0,0,0.24,727.485,374.64)"
   id="g357">
            <g
   id="text269">
                <text
   x="0px"
   y="0px"
   style="font-family:'Helvetica';font-size:45.833px;"
   id="text354">Added in V2</text>
            </g>
        </g>
        <g
   id="path273"
   transform="matrix(7.87402e-05,0,0,7.87402e-05,677.382,395.164)">
            <path
   d="M0,0L595028,1"
   style="fill:none;fill-rule:nonzero;stroke:black;stroke-width:19050px;"
   id="path359" />
        </g>
        <g
   transform="matrix(0.24,0,0,0.24,731.184,398.4)"
   id="g365">
            <g
   id="text275">
                <text
   x="0px"
   y="0px"
   style="font-family:'Helvetica';font-size:45.833px;"
   id="text362">Present in</text>
            </g>
        </g>
        <g
   transform="matrix(0.24,0,0,0.24,783.684,398.4)"
   id="g370">
            <g
   id="text279">
                <text
   x="0px"
   y="0px"
   style="font-family:'Helvetica';font-size:45.833px;"
   id="text367">micro:bit</text>
            </g>
        </g>
        <g
   transform="matrix(0.24,0,0,0.24,828.184,398.4)"
   id="g375">
            <g
   id="text283">
                <text
   x="0px"
   y="0px"
   style="font-family:'Helvetica';font-size:45.833px;"
   id="text372">V1</text>
            </g>
        </g>
    </g>
</svg>
